KumbhSans-Black.ufo
<glyph name="asterisk" format="1">
  <advance width="1056"/>
  <unicode hex="002A"/>
  <outline>
    <contour>
      <point x="926" y="733" type="line"/>
      <point x="682" y="1000" type="line"/>
      <point x="1036" y="1074" type="line"/>
      <point x="953" y="1330" type="line"/>
      <point x="623" y="1181" type="line"/>
      <point x="663" y="1541" type="line"/>
      <point x="393" y="1541" type="line"/>
      <point x="433" y="1181" type="line"/>
      <point x="103" y="1330" type="line"/>
      <point x="20" y="1074" type="line"/>
      <point x="374" y="1000" type="line"/>
      <point x="130" y="733" type="line"/>
      <point x="349" y="574" type="line"/>
      <point x="528" y="889" type="line"/>
      <point x="707" y="574" type="line"/>
    </contour>
  </outline>
</glyph>
<glyph name="two" format="1">
  <advance width="1213"/>
  <unicode hex="0032"/>
  <outline>
    <contour>
      <point x="1123" y="0" type="line"/>
      <point x="1123" y="345" type="line"/>
      <point x="685" y="345" type="line"/>
      <point x="951" y="554"/>
      <point x="1120" y="795"/>
      <point x="1120" y="1051" type="curve" smooth="yes"/>
      <point x="1120" y="1353"/>
      <point x="883" y="1530"/>
      <point x="609" y="1530" type="curve" smooth="yes"/>
      <point x="420" y="1530"/>
      <point x="226" y="1448"/>
      <point x="100" y="1304" type="curve"/>
      <point x="296" y="1049" type="line"/>
      <point x="357" y="1136"/>
      <point x="444" y="1187"/>
      <point x="531" y="1187" type="curve" smooth="yes"/>
      <point x="641" y="1187"/>
      <point x="715" y="1107"/>
      <point x="715" y="977" type="curve" smooth="yes"/>
      <point x="715" y="808"/>
      <point x="588" y="651"/>
      <point x="130" y="227" type="curve"/>
      <point x="130" y="0" type="line"/>
    </contour>
  </outline>
</glyph>
<glyph name="semicolon" format="1">
  <advance width="490"/>
  <unicode hex="003B"/>
  <outline>
    <contour>
      <point x="259" y="659" type="curve" smooth="yes"/>
      <point x="349" y="659"/>
      <point x="420" y="729"/>
      <point x="420" y="819" type="curve" smooth="yes"/>
      <point x="420" y="908"/>
      <point x="349" y="980"/>
      <point x="259" y="980" type="curve" smooth="yes"/>
      <point x="169" y="980"/>
      <point x="100" y="908"/>
      <point x="100" y="819" type="curve" smooth="yes"/>
      <point x="100" y="729"/>
      <point x="169" y="659"/>
    </contour>
    <contour>
      <point x="300" y="-240" type="line"/>
      <point x="420" y="200" type="line"/>
      <point x="130" y="200" type="line" name="av01"/>
      <point x="60" y="-240" type="line"/>
    </contour>
  </outline>
</glyph>
<glyph name="less" format="1">
  <advance width="1027"/>
  <unicode hex="003C"/>
  <outline>
    <contour>
      <point x="927" y="0" type="line"/>
      <point x="927" y="300" type="line"/>
      <point x="412" y="509" type="line"/>
      <point x="927" y="719" type="line"/>
      <point x="927" y="1020" type="line"/>
      <point x="20" y="588" type="line"/>
      <point x="20" y="431" type="line"/>
    </contour>
  </outline>
</glyph>
<glyph name="N" format="1">
  <advance width="1602"/>
  <unicode hex="004E"/>
  <outline>
    <contour>
      <point x="1502" y="0" type="line"/>
      <point x="1502" y="1500" type="line"/>
      <point x="1106" y="1500" type="line"/>
      <point x="1106" y="607" type="line"/>
      <point x="566" y="1500" type="line"/>
      <point x="100" y="1500" type="line"/>
      <point x="100" y="0" type="line"/>
      <point x="496" y="0" type="line"/>
      <point x="496" y="890" type="line"/>
      <point x="1036" y="0" type="line"/>
    </contour>
  </outline>
</glyph>
<glyph name="S" format="1">
  <advance width="1252"/>
  <unicode hex="0053"/>
  <outline>
    <contour>
      <point x="30" y="172" type="line"/>
      <point x="198" y="41"/>
      <point x="402" y="-30"/>
      <point x="618" y="-30" type="curve" smooth="yes"/>
      <point x="965" y="-30"/>
      <point x="1202" y="154"/>
      <point x="1202" y="424" type="curve" smooth="yes"/>
      <point x="1202" y="693"/>
      <point x="967" y="797"/>
      <point x="774" y="881" type="curve" smooth="yes"/>
      <point x="641" y="939"/>
      <point x="528" y="988"/>
      <point x="528" y="1077" type="curve" smooth="yes"/>
      <point x="528" y="1143"/>
      <point x="591" y="1185"/>
      <point x="690" y="1185" type="curve" smooth="yes"/>
      <point x="784" y="1185"/>
      <point x="908" y="1147"/>
      <point x="1004" y="1088" type="curve"/>
      <point x="1158" y="1406" type="line"/>
      <point x="986" y="1491"/>
      <point x="815" y="1530"/>
      <point x="664" y="1530" type="curve" smooth="yes"/>
      <point x="353" y="1530"/>
      <point x="123" y="1366"/>
      <point x="123" y="1086" type="curve" smooth="yes"/>
      <point x="123" y="804"/>
      <point x="357" y="709"/>
      <point x="549" y="631" type="curve" smooth="yes"/>
      <point x="683" y="576"/>
      <point x="797" y="530"/>
      <point x="797" y="434" type="curve" smooth="yes"/>
      <point x="797" y="357"/>
      <point x="724" y="312"/>
      <point x="600" y="312" type="curve" smooth="yes"/>
      <point x="474" y="312"/>
      <point x="362" y="359"/>
      <point x="216" y="474" type="curve"/>
    </contour>
  </outline>
</glyph>
<glyph name="T" format="1">
  <advance width="1248"/>
  <unicode hex="0054"/>
  <outline>
    <contour>
      <point x="822" y="0" type="line"/>
      <point x="822" y="1155" type="line"/>
      <point x="1238" y="1155" type="line"/>
      <point x="1238" y="1500" type="line"/>
      <point x="10" y="1500" type="line"/>
      <point x="10" y="1155" type="line"/>
      <point x="426" y="1155" type="line"/>
      <point x="426" y="0" type="line"/>
    </contour>
  </outline>
</glyph>
<glyph name="bracketright" format="1">
  <advance width="690"/>
  <unicode hex="005D"/>
  <outline>
    <contour>
      <point x="590" y="-289" type="line"/>
      <point x="590" y="1540" type="line"/>
      <point x="20" y="1540" type="line"/>
      <point x="20" y="1250" type="line"/>
      <point x="270" y="1250" type="line"/>
      <point x="270" y="1" type="line"/>
      <point x="20" y="1" type="line"/>
      <point x="20" y="-289" type="line"/>
    </contour>
  </outline>
</glyph>
<glyph name="grave" format="1">
  <advance width="531"/>
  <unicode hex="0060"/>
  <outline>
    <contour>
      <point x="491" y="1160" type="line"/>
      <point x="360" y="1500" type="line"/>
      <point x="30" y="1500" type="line" name="at01"/>
      <point x="231" y="1160" type="line" name="av01"/>
    </contour>
  </outline>
</glyph>
<glyph name="d" format="1">
  <advance width="1266"/>
  <unicode hex="0064"/>
  <outline>
    <contour>
      <point x="1166" y="0" type="line" name="dh01"/>
      <point x="1166" y="1500" type="line" name="at01"/>
      <point x="797" y="1500" type="line"/>
      <point x="797" y="900" type="line"/>
      <point x="719" y="976"/>
      <point x="616" y="1020"/>
      <point x="499" y="1020" type="curve" smooth="yes" name="at01.1"/>
      <point x="238" y="1020"/>
      <point x="50" y="800"/>
      <point x="50" y="500" type="curve" smooth="yes" name="sh03"/>
      <point x="50" y="200"/>
      <point x="238" y="-20"/>
      <point x="499" y="-20" type="curve" smooth="yes" name="dv01"/>
      <point x="630" y="-20"/>
      <point x="744" y="36"/>
      <point x="824" y="130" type="curve"/>
      <point x="843" y="0" type="line"/>
    </contour>
    <contour>
      <point x="613" y="310" type="curve" smooth="yes" name="dv02"/>
      <point x="506" y="310"/>
      <point x="428" y="390"/>
      <point x="428" y="500" type="curve" smooth="yes" name="ah01"/>
      <point x="428" y="610"/>
      <point x="506" y="690"/>
      <point x="613" y="690" type="curve" smooth="yes" name="sv01"/>
      <point x="714" y="690"/>
      <point x="797" y="619"/>
      <point x="797" y="520" type="curve" smooth="yes" name="sh02"/>
      <point x="797" y="483" type="line" smooth="yes"/>
      <point x="797" y="381"/>
      <point x="714" y="310"/>
    </contour>
  </outline>
</glyph>
<glyph name="e" format="1">
  <advance width="1166"/>
  <unicode hex="0065"/>
  <outline>
    <contour>
      <point x="1051" y="105" type="curve"/>
      <point x="955" y="360" type="line"/>
      <point x="874.1" y="302.15"/>
      <point x="779.15" y="270.2"/>
      <point x="688.35" y="270.2" type="curve" smooth="yes"/>
      <point x="559.298" y="270.2"/>
      <point x="481.187" y="332.116"/>
      <point x="446.186" y="410" type="curve"/>
      <point x="1116" y="410" type="line"/>
      <point x="1116" y="442" type="line" smooth="yes"/>
      <point x="1116" y="785.9"/>
      <point x="900.1" y="1020"/>
      <point x="583" y="1020" type="curve" smooth="yes"/>
      <point x="278.45" y="1020"/>
      <point x="50" y="804.4"/>
      <point x="50" y="517" type="curve" smooth="yes"/>
      <point x="50" y="211.95"/>
      <point x="306.95" y="-20"/>
      <point x="645" y="-20" type="curve" smooth="yes"/>
      <point x="789.05" y="-20"/>
      <point x="928.35" y="22.9"/>
    </contour>
    <contour>
      <point x="428.516" y="560" type="line"/>
      <point x="444.502" y="647.1"/>
      <point x="505.645" y="720"/>
      <point x="602" y="720" type="curve" smooth="yes"/>
      <point x="696.95" y="720"/>
      <point x="768.9" y="654.6"/>
      <point x="778" y="560" type="curve"/>
    </contour>
  </outline>
</glyph>
<glyph name="p" format="1">
  <advance width="1266"/>
  <unicode hex="0070"/>
  <outline>
    <contour>
      <point x="470" y="-500" type="line"/>
      <point x="470" y="100" type="line"/>
      <point x="548" y="24"/>
      <point x="650" y="-20"/>
      <point x="767" y="-20" type="curve" smooth="yes" name="at01"/>
      <point x="1028" y="-20"/>
      <point x="1216" y="200"/>
      <point x="1216" y="500" type="curve" smooth="yes" name="sh03"/>
      <point x="1216" y="800"/>
      <point x="1028" y="1020"/>
      <point x="767" y="1020" type="curve" smooth="yes" name="dv01"/>
      <point x="636" y="1020"/>
      <point x="522" y="964"/>
      <point x="442" y="870" type="curve"/>
      <point x="423" y="1000" type="line"/>
      <point x="100" y="1000" type="line" name="dh01"/>
      <point x="100" y="-500" type="line" name="at01"/>
    </contour>
    <contour>
      <point x="654" y="310" type="curve" smooth="yes" name="sv01"/>
      <point x="553" y="310"/>
      <point x="478" y="381"/>
      <point x="470" y="480" type="curve" name="sh02"/>
      <point x="470" y="517" type="line"/>
      <point x="478" y="619"/>
      <point x="553" y="690"/>
      <point x="654" y="690" type="curve" smooth="yes" name="dv02"/>
      <point x="761" y="690"/>
      <point x="838" y="610"/>
      <point x="838" y="500" type="curve" smooth="yes" name="ah01"/>
      <point x="838" y="390"/>
      <point x="761" y="310"/>
    </contour>
  </outline>
</glyph>
<glyph name="t" format="1">
  <advance width="908"/>
  <unicode hex="0074"/>
  <outline>
    <contour>
      <point x="878" y="28" type="curve"/>
      <point x="832" y="348" type="line"/>
      <point x="796" y="323"/>
      <point x="756" y="310"/>
      <point x="718" y="310" type="curve" smooth="yes"/>
      <point x="640" y="310"/>
      <point x="574" y="363"/>
      <point x="574" y="466" type="curve" smooth="yes"/>
      <point x="574" y="671" type="line"/>
      <point x="837" y="671" type="line"/>
      <point x="837" y="1000" type="line"/>
      <point x="574" y="1000" type="line"/>
      <point x="574" y="1250" type="line"/>
      <point x="225" y="1250" type="line"/>
      <point x="225" y="1000" type="line"/>
      <point x="30" y="1000" type="line"/>
      <point x="30" y="671" type="line"/>
      <point x="205" y="671" type="line"/>
      <point x="205" y="399" type="line" smooth="yes"/>
      <point x="205" y="150"/>
      <point x="381" y="-20"/>
      <point x="635.058" y="-20" type="curve" smooth="yes"/>
      <point x="713" y="-20"/>
      <point x="794" y="-4"/>
    </contour>
  </outline>
</glyph>
<glyph name="braceleft" format="1">
  <advance width="684"/>
  <unicode hex="007B"/>
  <outline>
    <contour>
      <point x="664" y="-289" type="curve"/>
      <point x="664" y="2" type="line"/>
      <point x="550" y="2"/>
      <point x="504" y="41"/>
      <point x="504" y="139" type="curve" smooth="yes"/>
      <point x="504" y="349" type="line" smooth="yes"/>
      <point x="504" y="473"/>
      <point x="439" y="576"/>
      <point x="332" y="626" type="curve"/>
      <point x="439" y="676"/>
      <point x="504" y="778"/>
      <point x="504" y="902" type="curve" smooth="yes"/>
      <point x="504" y="1112" type="line" smooth="yes"/>
      <point x="504" y="1210"/>
      <point x="550" y="1249"/>
      <point x="664" y="1249" type="curve"/>
      <point x="664" y="1540" type="line"/>
      <point x="348" y="1540"/>
      <point x="184" y="1421"/>
      <point x="184" y="1191" type="curve" smooth="yes"/>
      <point x="184" y="912" type="line" smooth="yes"/>
      <point x="184" y="797"/>
      <point x="112" y="703"/>
      <point x="20" y="696" type="curve"/>
      <point x="20" y="555" type="line"/>
      <point x="112" y="548"/>
      <point x="184" y="454"/>
      <point x="184" y="339" type="curve" smooth="yes"/>
      <point x="184" y="60" type="line" smooth="yes"/>
      <point x="184" y="-170"/>
      <point x="348" y="-289"/>
    </contour>
  </outline>
</glyph>
<glyph name="braceright" format="1">
  <advance width="684"/>
  <unicode hex="007D"/>
  <outline>
    <contour>
      <point x="20" y="-289" type="line"/>
      <point x="336" y="-289"/>
      <point x="500" y="-170"/>
      <point x="500" y="60" type="curve" smooth="yes"/>
      <point x="500" y="339" type="line" smooth="yes"/>
      <point x="500" y="454"/>
      <point x="572" y="548"/>
      <point x="664" y="555" type="curve"/>
      <point x="664" y="696" type="line"/>
      <point x="572" y="703"/>
      <point x="500" y="797"/>
      <point x="500" y="912" type="curve" smooth="yes"/>
      <point x="500" y="1191" type="line" smooth="yes"/>
      <point x="500" y="1421"/>
      <point x="336" y="1540"/>
      <point x="20" y="1540" type="curve"/>
      <point x="20" y="1250" type="line"/>
      <point x="134" y="1250"/>
      <point x="180" y="1210"/>
      <point x="180" y="1112" type="curve" smooth="yes"/>
      <point x="180" y="902" type="line" smooth="yes"/>
      <point x="180" y="778"/>
      <point x="245" y="676"/>
      <point x="352" y="626" type="curve"/>
      <point x="245" y="576"/>
      <point x="180" y="473"/>
      <point x="180" y="349" type="curve" smooth="yes"/>
      <point x="180" y="139" type="line" smooth="yes"/>
      <point x="180" y="41"/>
      <point x="134" y="2"/>
      <point x="20" y="2" type="curve"/>
    </contour>
  </outline>
</glyph>
<glyph name="exclamdown" format="1">
  <advance width="498"/>
  <unicode hex="00A1"/>
  <outline>
    <contour>
      <point x="248" y="710" type="curve" smooth="yes"/>
      <point x="338" y="710"/>
      <point x="408" y="779"/>
      <point x="408" y="865" type="curve" smooth="yes"/>
      <point x="408" y="952"/>
      <point x="338" y="1020"/>
      <point x="248" y="1020" type="curve" smooth="yes"/>
      <point x="158" y="1020"/>
      <point x="90" y="952"/>
      <point x="90" y="865" type="curve" smooth="yes"/>
      <point x="90" y="779"/>
      <point x="158" y="710"/>
    </contour>
    <contour>
      <point x="398" y="-500" type="line"/>
      <point x="353" y="580" type="line"/>
      <point x="143" y="580" type="line"/>
      <point x="98" y="-500" type="line"/>
    </contour>
  </outline>
</glyph>
<glyph name="cent" format="1">
  <advance width="1063"/>
  <unicode hex="00A2"/>
  <outline>
    <contour>
      <point x="1023" y="309" type="curve"/>
      <point x="806" y="533" type="line"/>
      <point x="766" y="482"/>
      <point x="694" y="450"/>
      <point x="622" y="450" type="curve" smooth="yes" name="dv02"/>
      <point x="509" y="450"/>
      <point x="428" y="530"/>
      <point x="428" y="641" type="curve" smooth="yes" name="sh02"/>
      <point x="428" y="752"/>
      <point x="509" y="830"/>
      <point x="622" y="830" type="curve" smooth="yes" name="sv01"/>
      <point x="694" y="830"/>
      <point x="764" y="798"/>
      <point x="806" y="747" type="curve"/>
      <point x="1021" y="974" type="line"/>
      <point x="945" y="1065"/>
      <point x="835" y="1128"/>
      <point x="705" y="1151" type="curve"/>
      <point x="715" y="1340" type="line"/>
      <point x="475" y="1340" type="line"/>
      <point x="485" y="1151" type="line"/>
      <point x="228" y="1106"/>
      <point x="50" y="904"/>
      <point x="50" y="640" type="curve" smooth="yes" name="sh01"/>
      <point x="50" y="376"/>
      <point x="228" y="174"/>
      <point x="485" y="129" type="curve"/>
      <point x="475" y="-60" type="line"/>
      <point x="715" y="-60" type="line"/>
      <point x="705" y="129" type="line"/>
      <point x="836" y="152"/>
      <point x="947" y="217"/>
    </contour>
  </outline>
</glyph>
<glyph name="dieresis" format="1">
  <advance width="929"/>
  <unicode hex="00A8"/>
  <outline>
    <contour>
      <point x="699" y="1189" type="curve" smooth="yes"/>
      <point x="783" y="1189"/>
      <point x="839" y="1245"/>
      <point x="839" y="1329" type="curve" smooth="yes"/>
      <point x="839" y="1413"/>
      <point x="783" y="1469"/>
      <point x="699" y="1469" type="curve" smooth="yes"/>
      <point x="615" y="1469"/>
      <point x="559" y="1413"/>
      <point x="559" y="1329" type="curve" smooth="yes"/>
      <point x="559" y="1245"/>
      <point x="615" y="1189"/>
    </contour>
    <contour>
      <point x="230" y="1189" type="curve" smooth="yes"/>
      <point x="314" y="1189"/>
      <point x="370" y="1245"/>
      <point x="370" y="1329" type="curve" smooth="yes"/>
      <point x="370" y="1413"/>
      <point x="314" y="1469"/>
      <point x="230" y="1469" type="curve" smooth="yes"/>
      <point x="146" y="1469"/>
      <point x="90" y="1413"/>
      <point x="90" y="1329" type="curve" smooth="yes"/>
      <point x="90" y="1245"/>
      <point x="146" y="1189"/>
    </contour>
  </outline>
</glyph>
<glyph name="degree" format="1">
  <advance width="660"/>
  <unicode hex="00B0"/>
  <outline>
    <contour>
      <point x="330" y="900" type="curve" smooth="yes" name="at02"/>
      <point x="508" y="900"/>
      <point x="640" y="1030"/>
      <point x="640" y="1210" type="curve" smooth="yes" name="sh03"/>
      <point x="640" y="1389"/>
      <point x="508" y="1520"/>
      <point x="330" y="1520" type="curve" smooth="yes" name="at01"/>
      <point x="150" y="1520"/>
      <point x="20" y="1389"/>
      <point x="20" y="1210" type="curve" smooth="yes" name="sh01"/>
      <point x="20" y="1030"/>
      <point x="150" y="900"/>
    </contour>
    <contour>
      <point x="330" y="1090" type="curve" smooth="yes"/>
      <point x="265" y="1090"/>
      <point x="220" y="1141"/>
      <point x="220" y="1210" type="curve" smooth="yes" name="sh02"/>
      <point x="220" y="1279"/>
      <point x="265" y="1330"/>
      <point x="330" y="1330" type="curve" smooth="yes"/>
      <point x="393" y="1330"/>
      <point x="440" y="1279"/>
      <point x="440" y="1210" type="curve" smooth="yes" name="ah01"/>
      <point x="440" y="1141"/>
      <point x="393" y="1090"/>
    </contour>
  </outline>
</glyph>
<glyph name="mu" format="1">
  <advance width="1302"/>
  <unicode hex="00B5"/>
  <outline>
    <contour>
      <point x="1270" y="-20" type="curve"/>
      <point x="1292" y="247" type="line"/>
      <point x="1192" y="247"/>
      <point x="1139" y="294"/>
      <point x="1139" y="383" type="curve" smooth="yes"/>
      <point x="1139" y="1000" type="line"/>
      <point x="770" y="1000" type="line"/>
      <point x="770" y="518" type="line" smooth="yes"/>
      <point x="770" y="393"/>
      <point x="710" y="310"/>
      <point x="620" y="310" type="curve" smooth="yes"/>
      <point x="529" y="310"/>
      <point x="469" y="393"/>
      <point x="469" y="518" type="curve" smooth="yes"/>
      <point x="469" y="1000" type="line"/>
      <point x="100" y="1000" type="line"/>
      <point x="100" y="-500" type="line"/>
      <point x="448" y="-500" type="line"/>
      <point x="448" y="47" type="line"/>
      <point x="499" y="4"/>
      <point x="563" y="-20"/>
      <point x="643" y="-20" type="curve" smooth="yes"/>
      <point x="755" y="-20"/>
      <point x="855" y="27"/>
      <point x="925" y="109" type="curve"/>
      <point x="996" y="22"/>
      <point x="1110" y="-20"/>
    </contour>
  </outline>
</glyph>
<glyph name="cedilla" format="1">
  <advance width="513"/>
  <unicode hex="00B8"/>
  <outline>
    <contour>
      <point x="70" y="-395" type="line"/>
      <point x="121" y="-419"/>
      <point x="175" y="-432"/>
      <point x="226" y="-432" type="curve" smooth="yes"/>
      <point x="351" y="-432"/>
      <point x="443" y="-357"/>
      <point x="443" y="-255" type="curve" smooth="yes"/>
      <point x="443" y="-170"/>
      <point x="380" y="-113"/>
      <point x="280" y="-102" type="curve"/>
      <point x="331" y="7" type="line" name="ih01"/>
      <point x="209" y="7" type="line"/>
      <point x="154" y="-135" type="line"/>
      <point x="162" y="-134"/>
      <point x="171" y="-134"/>
      <point x="178" y="-134" type="curve" smooth="yes"/>
      <point x="247" y="-134"/>
      <point x="276" y="-163"/>
      <point x="276" y="-206" type="curve" smooth="yes"/>
      <point x="276" y="-251"/>
      <point x="241" y="-282"/>
      <point x="191" y="-282" type="curve" smooth="yes"/>
      <point x="167" y="-282"/>
      <point x="142" y="-276"/>
      <point x="118" y="-263" type="curve"/>
    </contour>
  </outline>
</glyph>
<glyph name="Aacute" format="1">
  <advance width="1606"/>
  <unicode hex="00C1"/>
  <outline>
    <contour>
      <point x="943" y="1660" type="line" name="av01"/>
      <point x="1144" y="2000" type="line" name="at01"/>
      <point x="814" y="2000" type="line"/>
      <point x="683" y="1660" type="line"/>
    </contour>
    <contour>
      <point x="425" y="0" type="line" name="ab02"/>
      <point x="522" y="267" type="line"/>
      <point x="1084" y="267" type="line"/>
      <point x="1181" y="0" type="line"/>
      <point x="1596" y="0" type="line" name="n7"/>
      <point x="1011" y="1500" type="line"/>
      <point x="596" y="1500" type="line" name="at02"/>
      <point x="10" y="0" type="line"/>
    </contour>
    <contour>
      <point x="648" y="612" type="line"/>
      <point x="803" y="1040" type="line"/>
      <point x="959" y="612" type="line"/>
    </contour>
  </outline>
</glyph>
<glyph name="Atilde" format="1">
  <advance width="1606"/>
  <unicode hex="00C3"/>
  <outline>
    <contour>
      <point x="1206" y="1981" type="curve"/>
      <point x="1078" y="1981" type="line"/>
      <point x="1074" y="1905"/>
      <point x="1038" y="1865"/>
      <point x="976" y="1865" type="curve" smooth="yes"/>
      <point x="927" y="1865"/>
      <point x="889" y="1889"/>
      <point x="846" y="1918" type="curve" smooth="yes"/>
      <point x="795" y="1952"/>
      <point x="736" y="1990"/>
      <point x="638" y="1990" type="curve" smooth="yes" name="av01"/>
      <point x="481" y="1990"/>
      <point x="401" y="1889"/>
      <point x="401" y="1696" type="curve"/>
      <point x="529" y="1696" type="line"/>
      <point x="533" y="1771"/>
      <point x="574" y="1813"/>
      <point x="643" y="1813" type="curve" smooth="yes"/>
      <point x="697" y="1813"/>
      <point x="736" y="1788"/>
      <point x="778" y="1758" type="curve" smooth="yes"/>
      <point x="825" y="1724"/>
      <point x="880" y="1688"/>
      <point x="974" y="1688" type="curve" smooth="yes" name="av02"/>
      <point x="1128" y="1688"/>
      <point x="1206" y="1787"/>
    </contour>
    <contour>
      <point x="425" y="0" type="line" name="ab02"/>
      <point x="522" y="267" type="line"/>
      <point x="1084" y="267" type="line"/>
      <point x="1181" y="0" type="line"/>
      <point x="1596" y="0" type="line" name="n7"/>
      <point x="1011" y="1500" type="line"/>
      <point x="596" y="1500" type="line" name="at02"/>
      <point x="10" y="0" type="line"/>
    </contour>
    <contour>
      <point x="648" y="612" type="line"/>
      <point x="803" y="1040" type="line"/>
      <point x="959" y="612" type="line"/>
    </contour>
  </outline>
</glyph>
<glyph name="Egrave" format="1">
  <advance width="1200"/>
  <unicode hex="00C8"/>
  <outline>
    <contour>
      <point x="767" y="1660" type="line"/>
      <point x="635" y="2000" type="line"/>
      <point x="306" y="2000" type="line" name="at01.1"/>
      <point x="506" y="1660" type="line" name="av01"/>
    </contour>
    <contour>
      <point x="100" y="0" type="line" name="ab01"/>
      <point x="1110" y="0" type="line"/>
      <point x="1110" y="345" type="line" name="sv01"/>
      <point x="496" y="345" type="line" name="dh01"/>
      <point x="496" y="578" type="line" name="dv01"/>
      <point x="1060" y="578" type="line"/>
      <point x="1060" y="923" type="line"/>
      <point x="496" y="923" type="line" name="dv02"/>
      <point x="496" y="1155" type="line" name="sv02"/>
      <point x="1100" y="1155" type="line"/>
      <point x="1100" y="1500" type="line" name="at01"/>
      <point x="100" y="1500" type="line"/>
    </contour>
  </outline>
</glyph>
<glyph name="Ograve" format="1">
  <advance width="1710"/>
  <unicode hex="00D2"/>
  <outline>
    <contour>
      <point x="1007" y="1660" type="line"/>
      <point x="875" y="2000" type="line"/>
      <point x="546" y="2000" type="line" name="at01.1"/>
      <point x="746" y="1660" type="line" name="av01"/>
    </contour>
    <contour>
      <point x="856" y="-30" type="curve" smooth="yes" name="dv01"/>
      <point x="1316" y="-30"/>
      <point x="1650" y="303"/>
      <point x="1650" y="750" type="curve" smooth="yes" name="sh03"/>
      <point x="1650" y="1197"/>
      <point x="1316" y="1530"/>
      <point x="856" y="1530" type="curve" smooth="yes" name="at01"/>
      <point x="396" y="1530"/>
      <point x="60" y="1197"/>
      <point x="60" y="750" type="curve" smooth="yes" name="sh01"/>
      <point x="60" y="303"/>
      <point x="396" y="-30"/>
    </contour>
    <contour>
      <point x="856" y="315" type="curve" smooth="yes" name="dv02"/>
      <point x="634" y="315"/>
      <point x="465" y="505"/>
      <point x="465" y="750" type="curve" smooth="yes" name="sh02"/>
      <point x="465" y="995"/>
      <point x="634" y="1185"/>
      <point x="856" y="1185" type="curve" smooth="yes" name="sv01"/>
      <point x="1078" y="1185"/>
      <point x="1245" y="995"/>
      <point x="1245" y="750" type="curve" smooth="yes" name="ah01"/>
      <point x="1245" y="505"/>
      <point x="1078" y="315"/>
    </contour>
  </outline>
</glyph>
<glyph name="Otilde" format="1">
  <advance width="1710"/>
  <unicode hex="00D5"/>
  <outline>
    <contour>
      <point x="1258" y="1981" type="curve"/>
      <point x="1130" y="1981" type="line"/>
      <point x="1126" y="1905"/>
      <point x="1090" y="1865"/>
      <point x="1028" y="1865" type="curve" smooth="yes"/>
      <point x="979" y="1865"/>
      <point x="941" y="1889"/>
      <point x="898" y="1918" type="curve" smooth="yes"/>
      <point x="847" y="1952"/>
      <point x="788" y="1990"/>
      <point x="690" y="1990" type="curve" smooth="yes" name="av01"/>
      <point x="533" y="1990"/>
      <point x="453" y="1889"/>
      <point x="453" y="1696" type="curve"/>
      <point x="581" y="1696" type="line"/>
      <point x="585" y="1771"/>
      <point x="626" y="1813"/>
      <point x="695" y="1813" type="curve" smooth="yes"/>
      <point x="749" y="1813"/>
      <point x="788" y="1788"/>
      <point x="830" y="1758" type="curve" smooth="yes"/>
      <point x="877" y="1724"/>
      <point x="932" y="1688"/>
      <point x="1026" y="1688" type="curve" smooth="yes" name="av02"/>
      <point x="1180" y="1688"/>
      <point x="1258" y="1787"/>
    </contour>
    <contour>
      <point x="856" y="-30" type="curve" smooth="yes" name="dv01"/>
      <point x="1316" y="-30"/>
      <point x="1650" y="303"/>
      <point x="1650" y="750" type="curve" smooth="yes" name="sh03"/>
      <point x="1650" y="1197"/>
      <point x="1316" y="1530"/>
      <point x="856" y="1530" type="curve" smooth="yes" name="at01"/>
      <point x="396" y="1530"/>
      <point x="60" y="1197"/>
      <point x="60" y="750" type="curve" smooth="yes" name="sh01"/>
      <point x="60" y="303"/>
      <point x="396" y="-30"/>
    </contour>
    <contour>
      <point x="856" y="315" type="curve" smooth="yes" name="dv02"/>
      <point x="634" y="315"/>
      <point x="465" y="505"/>
      <point x="465" y="750" type="curve" smooth="yes" name="sh02"/>
      <point x="465" y="995"/>
      <point x="634" y="1185"/>
      <point x="856" y="1185" type="curve" smooth="yes" name="sv01"/>
      <point x="1078" y="1185"/>
      <point x="1245" y="995"/>
      <point x="1245" y="750" type="curve" smooth="yes" name="ah01"/>
      <point x="1245" y="505"/>
      <point x="1078" y="315"/>
    </contour>
  </outline>
</glyph>
<glyph name="atilde" format="1">
  <advance width="1129"/>
  <unicode hex="00E3"/>
  <outline>
    <contour>
      <point x="967" y="1481" type="curve"/>
      <point x="839" y="1481" type="line"/>
      <point x="835" y="1405"/>
      <point x="799" y="1365"/>
      <point x="737" y="1365" type="curve" smooth="yes"/>
      <point x="688" y="1365"/>
      <point x="650" y="1389"/>
      <point x="607" y="1418" type="curve" smooth="yes"/>
      <point x="556" y="1452"/>
      <point x="497" y="1490"/>
      <point x="399" y="1490" type="curve" smooth="yes" name="av01"/>
      <point x="242" y="1490"/>
      <point x="162" y="1389"/>
      <point x="162" y="1196" type="curve"/>
      <point x="290" y="1196" type="line"/>
      <point x="294" y="1271"/>
      <point x="335" y="1313"/>
      <point x="404" y="1313" type="curve" smooth="yes"/>
      <point x="458" y="1313"/>
      <point x="497" y="1288"/>
      <point x="539" y="1258" type="curve" smooth="yes"/>
      <point x="586" y="1224"/>
      <point x="641" y="1188"/>
      <point x="735" y="1188" type="curve" smooth="yes" name="av02"/>
      <point x="889" y="1188"/>
      <point x="967" y="1287"/>
    </contour>
    <contour>
      <point x="1049" y="0" type="line" name="n0.1"/>
      <point x="1049" y="528" type="line" smooth="yes" name="n1.1"/>
      <point x="1049" y="827" name="n2.1"/>
      <point x="849" y="1020" name="n3.1"/>
      <point x="535" y="1020" type="curve" smooth="yes" name="n4.1"/>
      <point x="403" y="1020" name="n5.1"/>
      <point x="257" y="986" name="n6.1"/>
      <point x="110" y="921" type="curve" name="n7.1"/>
      <point x="204" y="650" type="line" name="n8.1"/>
      <point x="271" y="699"/>
      <point x="359" y="727"/>
      <point x="447" y="727" type="curve" smooth="yes"/>
      <point x="584" y="727"/>
      <point x="680" y="663"/>
      <point x="680" y="571" type="curve" smooth="yes" name="n14"/>
      <point x="680" y="555" type="line"/>
      <point x="604" y="587"/>
      <point x="523" y="604"/>
      <point x="441" y="604" type="curve" smooth="yes" name="n17"/>
      <point x="213" y="604" name="n18"/>
      <point x="50" y="474" name="n19"/>
      <point x="50" y="287" type="curve" smooth="yes" name="n20"/>
      <point x="50" y="109" name="n21"/>
      <point x="199" y="-20" name="n22"/>
      <point x="405" y="-20" type="curve" smooth="yes" name="n23"/>
      <point x="528" y="-20"/>
      <point x="634" y="26"/>
      <point x="708" y="110" type="curve"/>
      <point x="726" y="0" type="line" name="n16.1"/>
    </contour>
    <contour>
      <point x="490" y="249" type="curve" smooth="yes" name="n4"/>
      <point x="423" y="249" name="n5"/>
      <point x="374" y="287" name="n6"/>
      <point x="374" y="340" type="curve" smooth="yes" name="n7"/>
      <point x="374" y="394" name="n8"/>
      <point x="426" y="428" name="n9"/>
      <point x="510" y="428" type="curve" smooth="yes" name="n10"/>
      <point x="568" y="428" name="n11"/>
      <point x="630" y="412"/>
      <point x="678" y="384" type="curve" name="n1"/>
      <point x="678" y="383" type="line"/>
      <point x="678" y="318"/>
      <point x="580" y="249" name="n3"/>
    </contour>
  </outline>
</glyph>
<glyph name="ntilde" format="1">
  <advance width="1219"/>
  <unicode hex="00F1"/>
  <outline>
    <contour>
      <point x="1034" y="1481" type="curve"/>
      <point x="906" y="1481" type="line"/>
      <point x="902" y="1405"/>
      <point x="866" y="1365"/>
      <point x="804" y="1365" type="curve" smooth="yes"/>
      <point x="755" y="1365"/>
      <point x="718" y="1390"/>
      <point x="676" y="1417" type="curve" smooth="yes"/>
      <point x="623" y="1451"/>
      <point x="565" y="1490"/>
      <point x="467" y="1490" type="curve" smooth="yes" name="av01"/>
      <point x="310" y="1490"/>
      <point x="229" y="1389"/>
      <point x="229" y="1196" type="curve"/>
      <point x="357" y="1196" type="line"/>
      <point x="361" y="1271"/>
      <point x="403" y="1313"/>
      <point x="472" y="1313" type="curve" smooth="yes"/>
      <point x="526" y="1313"/>
      <point x="564" y="1287"/>
      <point x="605" y="1259" type="curve" smooth="yes"/>
      <point x="654" y="1225"/>
      <point x="708" y="1188"/>
      <point x="802" y="1188" type="curve" smooth="yes" name="av02"/>
      <point x="956" y="1188"/>
      <point x="1034" y="1287"/>
    </contour>
    <contour>
      <point x="1139" y="0" type="line" name="ab02"/>
      <point x="1139" y="583" type="line" smooth="yes"/>
      <point x="1139" y="857"/>
      <point x="991" y="1020"/>
      <point x="743" y="1020" type="curve" smooth="yes" name="at02"/>
      <point x="590" y="1020"/>
      <point x="474" y="958"/>
      <point x="404" y="841" type="curve"/>
      <point x="392" y="1000" type="line"/>
      <point x="100" y="1000" type="line" name="dh01"/>
      <point x="100" y="0" type="line" name="at01"/>
      <point x="469" y="0" type="line"/>
      <point x="469" y="482" type="line" smooth="yes"/>
      <point x="469" y="614"/>
      <point x="525" y="690"/>
      <point x="622" y="690" type="curve" smooth="yes" name="sv01"/>
      <point x="717" y="690"/>
      <point x="770" y="615"/>
      <point x="770" y="482" type="curve" smooth="yes"/>
      <point x="770" y="0" type="line" name="dh02"/>
    </contour>
  </outline>
</glyph>
<glyph name="oacute" format="1">
  <advance width="1188"/>
  <unicode hex="00F3"/>
  <outline>
    <contour>
      <point x="705" y="1160" type="line" name="av01"/>
      <point x="906" y="1500" type="line" name="at01.1"/>
      <point x="576" y="1500" type="line"/>
      <point x="445" y="1160" type="line"/>
    </contour>
    <contour>
      <point x="595" y="-20" type="curve" smooth="yes" name="dv01"/>
      <point x="910" y="-20"/>
      <point x="1138" y="200"/>
      <point x="1138" y="500" type="curve" smooth="yes" name="sh03"/>
      <point x="1138" y="800"/>
      <point x="910" y="1020"/>
      <point x="595" y="1020" type="curve" smooth="yes" name="at01"/>
      <point x="280" y="1020"/>
      <point x="50" y="800"/>
      <point x="50" y="500" type="curve" smooth="yes" name="sh01"/>
      <point x="50" y="200"/>
      <point x="280" y="-20"/>
    </contour>
    <contour>
      <point x="594" y="310" type="curve" smooth="yes" name="dv02"/>
      <point x="498" y="310"/>
      <point x="428" y="390"/>
      <point x="428" y="502" type="curve" smooth="yes" name="sh02"/>
      <point x="428" y="610"/>
      <point x="498" y="690"/>
      <point x="594" y="690" type="curve" smooth="yes" name="sv01"/>
      <point x="690" y="690"/>
      <point x="760" y="610"/>
      <point x="760" y="502" type="curve" smooth="yes" name="ah01"/>
      <point x="760" y="390"/>
      <point x="690" y="310"/>
    </contour>
  </outline>
</glyph>
<glyph name="otilde" format="1">
  <advance width="1188"/>
  <unicode hex="00F5"/>
  <outline>
    <contour>
      <point x="982" y="1481" type="curve"/>
      <point x="854" y="1481" type="line"/>
      <point x="850" y="1405"/>
      <point x="814" y="1365"/>
      <point x="752" y="1365" type="curve" smooth="yes"/>
      <point x="703" y="1365"/>
      <point x="666" y="1390"/>
      <point x="624" y="1417" type="curve" smooth="yes"/>
      <point x="571" y="1451"/>
      <point x="513" y="1490"/>
      <point x="415" y="1490" type="curve" smooth="yes" name="av01"/>
      <point x="258" y="1490"/>
      <point x="177" y="1389"/>
      <point x="177" y="1196" type="curve"/>
      <point x="305" y="1196" type="line"/>
      <point x="309" y="1271"/>
      <point x="351" y="1313"/>
      <point x="420" y="1313" type="curve" smooth="yes"/>
      <point x="474" y="1313"/>
      <point x="512" y="1287"/>
      <point x="553" y="1259" type="curve" smooth="yes"/>
      <point x="602" y="1225"/>
      <point x="656" y="1188"/>
      <point x="750" y="1188" type="curve" smooth="yes" name="av02"/>
      <point x="904" y="1188"/>
      <point x="982" y="1287"/>
    </contour>
    <contour>
      <point x="595" y="-20" type="curve" smooth="yes" name="dv01"/>
      <point x="910" y="-20"/>
      <point x="1138" y="200"/>
      <point x="1138" y="500" type="curve" smooth="yes" name="sh03"/>
      <point x="1138" y="800"/>
      <point x="910" y="1020"/>
      <point x="595" y="1020" type="curve" smooth="yes" name="at01"/>
      <point x="280" y="1020"/>
      <point x="50" y="800"/>
      <point x="50" y="500" type="curve" smooth="yes" name="sh01"/>
      <point x="50" y="200"/>
      <point x="280" y="-20"/>
    </contour>
    <contour>
      <point x="594" y="310" type="curve" smooth="yes" name="dv02"/>
      <point x="498" y="310"/>
      <point x="428" y="390"/>
      <point x="428" y="502" type="curve" smooth="yes" name="sh02"/>
      <point x="428" y="610"/>
      <point x="498" y="690"/>
      <point x="594" y="690" type="curve" smooth="yes" name="sv01"/>
      <point x="690" y="690"/>
      <point x="760" y="610"/>
      <point x="760" y="502" type="curve" smooth="yes" name="ah01"/>
      <point x="760" y="390"/>
      <point x="690" y="310"/>
    </contour>
  </outline>
</glyph>
<glyph name="Abreve" format="1">
  <advance width="1606"/>
  <unicode hex="0102"/>
  <outline>
    <contour>
      <point x="1127" y="2000" type="curve" name="at01"/>
      <point x="927" y="2000" type="line" name="ah01"/>
      <point x="927" y="1899"/>
      <point x="882" y="1840"/>
      <point x="804" y="1840" type="curve" smooth="yes"/>
      <point x="726" y="1840"/>
      <point x="680" y="1899"/>
      <point x="680" y="2000" type="curve" name="sh01"/>
      <point x="479" y="2000" type="line" name="at02.1"/>
      <point x="479" y="1804"/>
      <point x="611" y="1670"/>
      <point x="803" y="1670" type="curve" smooth="yes" name="av01"/>
      <point x="995" y="1670"/>
      <point x="1127" y="1804"/>
    </contour>
    <contour>
      <point x="425" y="0" type="line" name="ab02"/>
      <point x="522" y="267" type="line"/>
      <point x="1084" y="267" type="line"/>
      <point x="1181" y="0" type="line"/>
      <point x="1596" y="0" type="line" name="n7"/>
      <point x="1011" y="1500" type="line"/>
      <point x="596" y="1500" type="line" name="at02"/>
      <point x="10" y="0" type="line"/>
    </contour>
    <contour>
      <point x="648" y="612" type="line"/>
      <point x="803" y="1040" type="line"/>
      <point x="959" y="612" type="line"/>
    </contour>
  </outline>
</glyph>
<glyph name="ccircumflex" format="1">
  <advance width="1063"/>
  <unicode hex="0109"/>
  <outline>
    <contour>
      <point x="949" y="1160" type="line"/>
      <point x="724" y="1500" type="line" name="at01.1"/>
      <point x="431" y="1500" type="line" name="at01.1.1"/>
      <point x="206" y="1160" type="line"/>
      <point x="475" y="1160" type="line" name="av01"/>
      <point x="577" y="1352" type="line"/>
      <point x="679" y="1160" type="line" name="av01.1"/>
    </contour>
    <contour>
      <point x="1023" y="169" type="curve"/>
      <point x="806" y="393" type="line"/>
      <point x="766" y="342"/>
      <point x="694" y="310"/>
      <point x="622" y="310" type="curve" smooth="yes" name="dv02"/>
      <point x="509" y="310"/>
      <point x="428" y="390"/>
      <point x="428" y="502" type="curve" smooth="yes" name="sh02"/>
      <point x="428" y="612"/>
      <point x="509" y="690"/>
      <point x="622" y="690" type="curve" smooth="yes" name="sv01"/>
      <point x="694" y="690"/>
      <point x="764" y="658"/>
      <point x="806" y="607" type="curve"/>
      <point x="1021" y="834" type="line"/>
      <point x="924" y="949"/>
      <point x="773" y="1020"/>
      <point x="595" y="1020" type="curve" smooth="yes" name="at01"/>
      <point x="280" y="1020"/>
      <point x="50" y="800"/>
      <point x="50" y="500" type="curve" smooth="yes" name="sh01"/>
      <point x="50" y="200"/>
      <point x="280" y="-20"/>
      <point x="595" y="-20" type="curve" smooth="yes" name="dv01"/>
      <point x="775" y="-20"/>
      <point x="926" y="52"/>
    </contour>
  </outline>
</glyph>
<glyph name="Ebreve" format="1">
  <advance width="1210"/>
  <unicode hex="0114"/>
  <outline>
    <contour>
      <point x="929" y="2000" type="curve" name="at01.1"/>
      <point x="729" y="2000" type="line" name="ah01"/>
      <point x="729" y="1899"/>
      <point x="684" y="1840"/>
      <point x="606" y="1840" type="curve" smooth="yes"/>
      <point x="528" y="1840"/>
      <point x="482" y="1899"/>
      <point x="482" y="2000" type="curve" name="sh01"/>
      <point x="281" y="2000" type="line" name="at02"/>
      <point x="281" y="1804"/>
      <point x="413" y="1670"/>
      <point x="605" y="1670" type="curve" smooth="yes" name="av01"/>
      <point x="797" y="1670"/>
      <point x="929" y="1804"/>
    </contour>
    <contour>
      <point x="100" y="0" type="line" name="ab01"/>
      <point x="1110" y="0" type="line"/>
      <point x="1110" y="345" type="line" name="sv01"/>
      <point x="496" y="345" type="line" name="dh01"/>
      <point x="496" y="578" type="line" name="dv01"/>
      <point x="1060" y="578" type="line"/>
      <point x="1060" y="923" type="line"/>
      <point x="496" y="923" type="line" name="dv02"/>
      <point x="496" y="1155" type="line" name="sv02"/>
      <point x="1100" y="1155" type="line"/>
      <point x="1100" y="1500" type="line" name="at01"/>
      <point x="100" y="1500" type="line"/>
    </contour>
  </outline>
</glyph>
<glyph name="Gcommaaccent" format="1">
  <advance width="1632"/>
  <unicode hex="0122"/>
  <outline>
    <contour>
      <point x="1149" y="1067" type="curve"/>
      <point x="1404" y="1322" type="line"/>
      <point x="1248" y="1455"/>
      <point x="1045" y="1530"/>
      <point x="838" y="1530" type="curve" smooth="yes" name="at01"/>
      <point x="398" y="1530"/>
      <point x="60" y="1191"/>
      <point x="60" y="754" type="curve" smooth="yes" name="sh01"/>
      <point x="60" y="310"/>
      <point x="408" y="-30"/>
      <point x="855" y="-30" type="curve" smooth="yes" name="dv01"/>
      <point x="1283" y="-30"/>
      <point x="1572" y="282"/>
      <point x="1572" y="739" type="curve"/>
      <point x="1561" y="890" type="line"/>
      <point x="854" y="890" type="line"/>
      <point x="854" y="590" type="line"/>
      <point x="1213" y="590" type="line"/>
      <point x="1171" y="413"/>
      <point x="1052" y="315"/>
      <point x="871" y="315" type="curve" smooth="yes" name="dv02"/>
      <point x="628" y="315"/>
      <point x="465" y="493"/>
      <point x="465" y="760" type="curve" smooth="yes" name="sh02"/>
      <point x="465" y="1020"/>
      <point x="618" y="1185"/>
      <point x="849" y="1185" type="curve" smooth="yes" name="sv01"/>
      <point x="969" y="1185"/>
      <point x="1077" y="1141"/>
    </contour>
    <contour>
      <point x="779" y="-548" type="line"/>
      <point x="903" y="-484"/>
      <point x="981" y="-345"/>
      <point x="981" y="-190" type="curve" smooth="yes"/>
      <point x="981" y="-139"/>
      <point x="972" y="-86"/>
      <point x="954" y="-35" type="curve"/>
      <point x="682" y="-90" type="line"/>
      <point x="715" y="-135"/>
      <point x="731" y="-191"/>
      <point x="731" y="-247" type="curve" smooth="yes"/>
      <point x="731" y="-320"/>
      <point x="704" y="-392"/>
      <point x="651" y="-437" type="curve"/>
    </contour>
  </outline>
</glyph>
<glyph name="Hcircumflex" format="1">
  <advance width="1515"/>
  <unicode hex="0124"/>
  <outline>
    <contour>
      <point x="1130" y="1660" type="line"/>
      <point x="905" y="2000" type="line" name="at01.1"/>
      <point x="612" y="2000" type="line" name="at01.1.1"/>
      <point x="387" y="1660" type="line"/>
      <point x="656" y="1660" type="line" name="av01"/>
      <point x="758" y="1852" type="line"/>
      <point x="860" y="1660" type="line" name="av01.1"/>
    </contour>
    <contour>
      <point x="496" y="0" type="line" name="ab01"/>
      <point x="496" y="565" type="line" name="dv01"/>
      <point x="1019" y="565" type="line"/>
      <point x="1019" y="0" type="line" name="ab02"/>
      <point x="1415" y="0" type="line" name="sh02"/>
      <point x="1415" y="1500" type="line" name="at01"/>
      <point x="1019" y="1500" type="line" name="sh03"/>
      <point x="1019" y="910" type="line"/>
      <point x="496" y="910" type="line" name="dv02"/>
      <point x="496" y="1500" type="line" name="at02"/>
      <point x="100" y="1500" type="line" name="sh01"/>
      <point x="100" y="0" type="line"/>
    </contour>
  </outline>
</glyph>
<glyph name="Itilde" format="1">
  <advance width="596"/>
  <unicode hex="0128"/>
  <outline>
    <contour>
      <point x="701" y="1981" type="line"/>
      <point x="701" y="1787"/>
      <point x="623" y="1688"/>
      <point x="469" y="1688" type="curve" smooth="yes" name="av02"/>
      <point x="375" y="1688"/>
      <point x="320" y="1725"/>
      <point x="271" y="1759" type="curve" smooth="yes"/>
      <point x="230" y="1787"/>
      <point x="192" y="1813"/>
      <point x="138" y="1813" type="curve" smooth="yes"/>
      <point x="69" y="1813"/>
      <point x="28" y="1771"/>
      <point x="24" y="1696" type="curve"/>
      <point x="-104" y="1696" type="line"/>
      <point x="-104" y="1889"/>
      <point x="-24" y="1990"/>
      <point x="133" y="1990" type="curve" smooth="yes" name="av01"/>
      <point x="231" y="1990"/>
      <point x="290" y="1951"/>
      <point x="343" y="1917" type="curve" smooth="yes"/>
      <point x="385" y="1890"/>
      <point x="422" y="1865"/>
      <point x="471" y="1865" type="curve" smooth="yes"/>
      <point x="533" y="1865"/>
      <point x="569" y="1905"/>
      <point x="573" y="1981" type="curve"/>
    </contour>
    <contour>
      <point x="496" y="1500" type="line" name="at01"/>
      <point x="496" y="0" type="line" name="ab01"/>
      <point x="100" y="0" type="line" name="dh01"/>
      <point x="100" y="1500" type="line"/>
    </contour>
  </outline>
</glyph>
<glyph name="itilde" format="1">
  <advance width="570"/>
  <unicode hex="0129"/>
  <outline>
    <contour>
      <point x="688" y="1481" type="curve"/>
      <point x="560" y="1481" type="line"/>
      <point x="556" y="1405"/>
      <point x="520" y="1365"/>
      <point x="458" y="1365" type="curve" smooth="yes"/>
      <point x="409" y="1365"/>
      <point x="372" y="1390"/>
      <point x="330" y="1417" type="curve" smooth="yes"/>
      <point x="277" y="1451"/>
      <point x="218" y="1490"/>
      <point x="120" y="1490" type="curve" smooth="yes" name="av01"/>
      <point x="-37" y="1490"/>
      <point x="-117" y="1389"/>
      <point x="-117" y="1196" type="curve"/>
      <point x="11" y="1196" type="line"/>
      <point x="15" y="1271"/>
      <point x="56" y="1313"/>
      <point x="125" y="1313" type="curve" smooth="yes"/>
      <point x="179" y="1313"/>
      <point x="217" y="1287"/>
      <point x="258" y="1259" type="curve" smooth="yes"/>
      <point x="307" y="1225"/>
      <point x="362" y="1188"/>
      <point x="456" y="1188" type="curve" smooth="yes" name="av02"/>
      <point x="610" y="1188"/>
      <point x="688" y="1287"/>
    </contour>
    <contour>
      <point x="470" y="0" type="line" name="sh01"/>
      <point x="470" y="1000" type="line"/>
      <point x="101" y="1000" type="line"/>
      <point x="101" y="0" type="line" name="ab01"/>
    </contour>
  </outline>
</glyph>
<glyph name="Imacron" format="1">
  <advance width="598"/>
  <unicode hex="012A"/>
  <outline>
    <contour>
      <point x="648" y="1725" type="line"/>
      <point x="-50" y="1725" type="line"/>
      <point x="-50" y="1930" type="line"/>
      <point x="648" y="1930" type="line"/>
    </contour>
    <contour>
      <point x="497" y="1500" type="line" name="at01"/>
      <point x="497" y="0" type="line" name="ab01"/>
      <point x="101" y="0" type="line" name="dh01"/>
      <point x="101" y="1500" type="line"/>
    </contour>
  </outline>
</glyph>
<glyph name="imacron" format="1">
  <advance width="570"/>
  <unicode hex="012B"/>
  <outline>
    <contour>
      <point x="634" y="1225" type="line"/>
      <point x="634" y="1430" type="line"/>
      <point x="-64" y="1430" type="line"/>
      <point x="-64" y="1225" type="line"/>
    </contour>
    <contour>
      <point x="470" y="0" type="line" name="sh01"/>
      <point x="470" y="1000" type="line"/>
      <point x="100" y="1000" type="line"/>
      <point x="100" y="0" type="line" name="ab01"/>
    </contour>
  </outline>
</glyph>
<glyph name="Iogonek" format="1">
  <advance width="596"/>
  <unicode hex="012E"/>
  <outline>
    <contour>
      <point x="496" y="1500" type="line" name="at01"/>
      <point x="496" y="0" type="line" name="ab01"/>
      <point x="445" y="0" type="line"/>
      <point x="368" y="-35"/>
      <point x="317" y="-92"/>
      <point x="317" y="-145" type="curve" smooth="yes"/>
      <point x="317" y="-199"/>
      <point x="366" y="-238"/>
      <point x="431" y="-238" type="curve"/>
      <point x="402" y="-416" type="line" name="av01"/>
      <point x="246" y="-416"/>
      <point x="142" y="-343"/>
      <point x="142" y="-232" type="curve" smooth="yes"/>
      <point x="142" y="-139"/>
      <point x="214" y="-50"/>
      <point x="328" y="0" type="curve" name="ab01.1"/>
      <point x="100" y="0" type="line" name="dh01"/>
      <point x="100" y="1500" type="line"/>
    </contour>
  </outline>
</glyph>
<glyph name="iogonek" format="1">
  <advance width="569"/>
  <unicode hex="012F"/>
  <outline>
    <contour>
      <point x="284" y="1188" type="curve" smooth="yes"/>
      <point x="374" y="1188"/>
      <point x="445" y="1259"/>
      <point x="445" y="1349" type="curve" smooth="yes"/>
      <point x="445" y="1438"/>
      <point x="374" y="1510"/>
      <point x="284" y="1510" type="curve" smooth="yes"/>
      <point x="194" y="1510"/>
      <point x="125" y="1438"/>
      <point x="125" y="1349" type="curve" smooth="yes"/>
      <point x="125" y="1259"/>
      <point x="194" y="1188"/>
    </contour>
    <contour>
      <point x="469" y="0" type="line"/>
      <point x="469" y="1000" type="line"/>
      <point x="100" y="1000" type="line"/>
      <point x="100" y="0" type="line"/>
      <point x="314.07" y="0" type="line" name="ab01"/>
      <point x="199.594" y="-49.8434"/>
      <point x="128.5" y="-138.545"/>
      <point x="128.5" y="-232" type="curve" smooth="yes"/>
      <point x="128.5" y="-343"/>
      <point x="232.5" y="-416"/>
      <point x="388.5" y="-416" type="curve" name="av01"/>
      <point x="417.5" y="-238" type="line"/>
      <point x="352.5" y="-238"/>
      <point x="303.5" y="-199"/>
      <point x="303.5" y="-145" type="curve" smooth="yes"/>
      <point x="303.5" y="-92.0904"/>
      <point x="353.488" y="-34.5659"/>
      <point x="431.178" y="0" type="curve"/>
    </contour>
  </outline>
</glyph>
<glyph name="uni0137" format="1">
  <advance width="1282"/>
  <unicode hex="0137"/>
  <outline>
    <contour>
      <point x="469" y="0" type="line"/>
      <point x="469" y="277" type="line"/>
      <point x="545" y="328" type="line"/>
      <point x="796" y="0" type="line"/>
      <point x="1272" y="0" type="line"/>
      <point x="799" y="547" type="line"/>
      <point x="1232" y="1000" type="line"/>
      <point x="770" y="1000" type="line"/>
      <point x="580" y="801" type="line"/>
      <point x="469" y="667" type="line"/>
      <point x="469" y="1500" type="line"/>
      <point x="100" y="1500" type="line"/>
      <point x="100" y="0" type="line"/>
    </contour>
    <contour>
      <point x="548" y="-548" type="line"/>
      <point x="672" y="-484"/>
      <point x="750" y="-345"/>
      <point x="750" y="-190" type="curve" smooth="yes"/>
      <point x="750" y="-139"/>
      <point x="741" y="-86"/>
      <point x="723" y="-35" type="curve"/>
      <point x="451" y="-90" type="line"/>
      <point x="484" y="-135"/>
      <point x="500" y="-191"/>
      <point x="500" y="-247" type="curve" smooth="yes"/>
      <point x="500" y="-320"/>
      <point x="473" y="-392"/>
      <point x="420" y="-437" type="curve"/>
    </contour>
  </outline>
</glyph>
<glyph name="Lcaron" format="1">
  <advance width="1140"/>
  <unicode hex="013D"/>
  <outline>
    <contour>
      <point x="909" y="1050" type="line"/>
      <point x="1053" y="1500" type="line"/>
      <point x="803" y="1500" type="line" name="av01.1"/>
      <point x="702" y="1050" type="line"/>
    </contour>
    <contour>
      <point x="1120" y="0" type="line"/>
      <point x="1120" y="345" type="line"/>
      <point x="496" y="345" type="line"/>
      <point x="496" y="1500" type="line"/>
      <point x="100" y="1500" type="line"/>
      <point x="100" y="0" type="line"/>
    </contour>
  </outline>
</glyph>
<glyph name="ldot" format="1">
  <advance width="947"/>
  <unicode hex="0140"/>
  <outline>
    <contour>
      <point x="496" y="0" type="line"/>
      <point x="496" y="1540" type="line" name="av01"/>
      <point x="100" y="1540" type="line" name="dh01"/>
      <point x="100" y="0" type="line" name="ab01"/>
    </contour>
    <contour>
      <point x="797" y="630" type="curve" smooth="yes"/>
      <point x="881" y="630"/>
      <point x="937" y="686"/>
      <point x="937" y="770" type="curve" smooth="yes"/>
      <point x="937" y="854"/>
      <point x="881" y="910"/>
      <point x="797" y="910" type="curve" smooth="yes"/>
      <point x="713" y="910"/>
      <point x="657" y="854"/>
      <point x="657" y="770" type="curve" smooth="yes"/>
      <point x="657" y="686"/>
      <point x="713" y="630"/>
    </contour>
  </outline>
</glyph>
<glyph name="nacute" format="1">
  <advance width="1219"/>
  <unicode hex="0144"/>
  <outline>
    <contour>
      <point x="719" y="1160" type="line" name="av01"/>
      <point x="920" y="1500" type="line" name="at01.1"/>
      <point x="590" y="1500" type="line"/>
      <point x="459" y="1160" type="line"/>
    </contour>
    <contour>
      <point x="1139" y="0" type="line" name="ab02"/>
      <point x="1139" y="583" type="line" smooth="yes"/>
      <point x="1139" y="857"/>
      <point x="991" y="1020"/>
      <point x="743" y="1020" type="curve" smooth="yes" name="at02"/>
      <point x="590" y="1020"/>
      <point x="474" y="958"/>
      <point x="404" y="841" type="curve"/>
      <point x="392" y="1000" type="line"/>
      <point x="100" y="1000" type="line" name="dh01"/>
      <point x="100" y="0" type="line" name="at01"/>
      <point x="469" y="0" type="line"/>
      <point x="469" y="482" type="line" smooth="yes"/>
      <point x="469" y="614"/>
      <point x="525" y="690"/>
      <point x="622" y="690" type="curve" smooth="yes" name="sv01"/>
      <point x="717" y="690"/>
      <point x="770" y="615"/>
      <point x="770" y="482" type="curve" smooth="yes"/>
      <point x="770" y="0" type="line" name="dh02"/>
    </contour>
  </outline>
</glyph>
<glyph name="uni0145" format="1">
  <advance width="1602"/>
  <unicode hex="0145"/>
  <outline>
    <contour>
      <point x="1502" y="0" type="line"/>
      <point x="1502" y="1500" type="line"/>
      <point x="1106" y="1500" type="line"/>
      <point x="1106" y="607" type="line"/>
      <point x="566" y="1500" type="line"/>
      <point x="100" y="1500" type="line"/>
      <point x="100" y="0" type="line"/>
      <point x="496" y="0" type="line"/>
      <point x="496" y="890" type="line"/>
      <point x="1036" y="0" type="line"/>
    </contour>
    <contour>
      <point x="764" y="-548" type="line"/>
      <point x="888" y="-484"/>
      <point x="966" y="-345"/>
      <point x="966" y="-190" type="curve" smooth="yes"/>
      <point x="966" y="-139"/>
      <point x="957" y="-86"/>
      <point x="939" y="-35" type="curve"/>
      <point x="667" y="-90" type="line"/>
      <point x="700" y="-135"/>
      <point x="716" y="-191"/>
      <point x="716" y="-247" type="curve" smooth="yes"/>
      <point x="716" y="-320"/>
      <point x="689" y="-392"/>
      <point x="636" y="-437" type="curve"/>
    </contour>
  </outline>
</glyph>
<glyph name="napostrophe" format="1">
  <advance width="1220"/>
  <unicode hex="0149"/>
  <outline>
    <contour>
      <point x="228" y="1028" type="line"/>
      <point x="352" y="1092"/>
      <point x="430" y="1231"/>
      <point x="430" y="1386" type="curve" smooth="yes"/>
      <point x="430" y="1437"/>
      <point x="421" y="1490"/>
      <point x="403" y="1541" type="curve"/>
      <point x="131" y="1486" type="line"/>
      <point x="164" y="1441"/>
      <point x="180" y="1385"/>
      <point x="180" y="1329" type="curve" smooth="yes"/>
      <point x="180" y="1256"/>
      <point x="153" y="1184"/>
      <point x="100" y="1139" type="curve"/>
    </contour>
    <contour>
      <point x="1140" y="0" type="line" name="ab02"/>
      <point x="1140" y="583" type="line" smooth="yes"/>
      <point x="1140" y="857"/>
      <point x="992" y="1020"/>
      <point x="744" y="1020" type="curve" smooth="yes" name="at02"/>
      <point x="591" y="1020"/>
      <point x="475" y="958"/>
      <point x="405" y="841" type="curve"/>
      <point x="393" y="1000" type="line"/>
      <point x="101" y="1000" type="line" name="dh01"/>
      <point x="101" y="0" type="line" name="at01"/>
      <point x="470" y="0" type="line"/>
      <point x="470" y="482" type="line" smooth="yes"/>
      <point x="470" y="614"/>
      <point x="526" y="690"/>
      <point x="623" y="690" type="curve" smooth="yes" name="sv01"/>
      <point x="718" y="690"/>
      <point x="771" y="615"/>
      <point x="771" y="482" type="curve" smooth="yes"/>
      <point x="771" y="0" type="line" name="dh02"/>
    </contour>
  </outline>
</glyph>
<glyph name="Obreve" format="1">
  <advance width="1710"/>
  <unicode hex="014E"/>
  <outline>
    <contour>
      <point x="1179" y="2000" type="curve" name="at01.1"/>
      <point x="979" y="2000" type="line" name="ah01.1"/>
      <point x="979" y="1899"/>
      <point x="934" y="1840"/>
      <point x="856" y="1840" type="curve" smooth="yes"/>
      <point x="778" y="1840"/>
      <point x="732" y="1899"/>
      <point x="732" y="2000" type="curve" name="sh01.1"/>
      <point x="531" y="2000" type="line" name="at02"/>
      <point x="531" y="1804"/>
      <point x="663" y="1670"/>
      <point x="855" y="1670" type="curve" smooth="yes" name="av01"/>
      <point x="1047" y="1670"/>
      <point x="1179" y="1804"/>
    </contour>
    <contour>
      <point x="856" y="-30" type="curve" smooth="yes" name="dv01"/>
      <point x="1316" y="-30"/>
      <point x="1650" y="303"/>
      <point x="1650" y="750" type="curve" smooth="yes" name="sh03"/>
      <point x="1650" y="1197"/>
      <point x="1316" y="1530"/>
      <point x="856" y="1530" type="curve" smooth="yes" name="at01"/>
      <point x="396" y="1530"/>
      <point x="60" y="1197"/>
      <point x="60" y="750" type="curve" smooth="yes" name="sh01"/>
      <point x="60" y="303"/>
      <point x="396" y="-30"/>
    </contour>
    <contour>
      <point x="856" y="315" type="curve" smooth="yes" name="dv02"/>
      <point x="634" y="315"/>
      <point x="465" y="505"/>
      <point x="465" y="750" type="curve" smooth="yes" name="sh02"/>
      <point x="465" y="995"/>
      <point x="634" y="1185"/>
      <point x="856" y="1185" type="curve" smooth="yes" name="sv01"/>
      <point x="1078" y="1185"/>
      <point x="1245" y="995"/>
      <point x="1245" y="750" type="curve" smooth="yes" name="ah01"/>
      <point x="1245" y="505"/>
      <point x="1078" y="315"/>
    </contour>
  </outline>
</glyph>
<glyph name="Ohungarumlaut" format="1">
  <advance width="1710"/>
  <unicode hex="0150"/>
  <outline>
    <contour>
      <point x="781" y="1660" type="line" name="av01"/>
      <point x="981" y="2000" type="line" name="at01.1"/>
      <point x="652" y="2000" type="line"/>
      <point x="520" y="1660" type="line"/>
    </contour>
    <contour>
      <point x="1201" y="1660" type="line" name="av01.1"/>
      <point x="1402" y="2000" type="line" name="at01.1.1"/>
      <point x="1072" y="2000" type="line"/>
      <point x="941" y="1660" type="line"/>
    </contour>
    <contour>
      <point x="856" y="-30" type="curve" smooth="yes" name="dv01"/>
      <point x="1316" y="-30"/>
      <point x="1650" y="303"/>
      <point x="1650" y="750" type="curve" smooth="yes" name="sh03"/>
      <point x="1650" y="1197"/>
      <point x="1316" y="1530"/>
      <point x="856" y="1530" type="curve" smooth="yes" name="at01"/>
      <point x="396" y="1530"/>
      <point x="60" y="1197"/>
      <point x="60" y="750" type="curve" smooth="yes" name="sh01"/>
      <point x="60" y="303"/>
      <point x="396" y="-30"/>
    </contour>
    <contour>
      <point x="856" y="315" type="curve" smooth="yes" name="dv02"/>
      <point x="634" y="315"/>
      <point x="465" y="505"/>
      <point x="465" y="750" type="curve" smooth="yes" name="sh02"/>
      <point x="465" y="995"/>
      <point x="634" y="1185"/>
      <point x="856" y="1185" type="curve" smooth="yes" name="sv01"/>
      <point x="1078" y="1185"/>
      <point x="1245" y="995"/>
      <point x="1245" y="750" type="curve" smooth="yes" name="ah01"/>
      <point x="1245" y="505"/>
      <point x="1078" y="315"/>
    </contour>
  </outline>
</glyph>
<glyph name="racute" format="1">
  <advance width="899"/>
  <unicode hex="0155"/>
  <outline>
    <contour>
      <point x="579" y="1160" type="line" name="av01"/>
      <point x="780" y="1500" type="line" name="at01.1"/>
      <point x="450" y="1500" type="line"/>
      <point x="319" y="1160" type="line"/>
    </contour>
    <contour>
      <point x="469" y="0" type="line"/>
      <point x="469" y="443" type="line" smooth="yes"/>
      <point x="469" y="594"/>
      <point x="561" y="690"/>
      <point x="707" y="690" type="curve" smooth="yes"/>
      <point x="748" y="690"/>
      <point x="794" y="682"/>
      <point x="843" y="666" type="curve"/>
      <point x="889" y="998" type="line"/>
      <point x="839" y="1013"/>
      <point x="791" y="1020"/>
      <point x="745" y="1020" type="curve" smooth="yes"/>
      <point x="608" y="1020"/>
      <point x="498" y="955"/>
      <point x="432" y="843" type="curve"/>
      <point x="420" y="1000" type="line"/>
      <point x="100" y="1000" type="line" name="dh01"/>
      <point x="100" y="0" type="line" name="at01"/>
    </contour>
  </outline>
</glyph>
<glyph name="Tbar" format="1">
  <advance width="1248"/>
  <unicode hex="0166"/>
  <outline>
    <contour>
      <point x="984" y="545" type="line"/>
      <point x="984" y="750" type="line"/>
      <point x="822" y="750" type="line"/>
      <point x="822" y="1155" type="line"/>
      <point x="1238" y="1155" type="line"/>
      <point x="1238" y="1500" type="line"/>
      <point x="10" y="1500" type="line"/>
      <point x="10" y="1155" type="line"/>
      <point x="426" y="1155" type="line"/>
      <point x="426" y="750" type="line"/>
      <point x="264" y="750" type="line"/>
      <point x="264" y="545" type="line"/>
      <point x="426" y="545" type="line"/>
      <point x="426" y="0" type="line"/>
      <point x="822" y="0" type="line"/>
      <point x="822" y="545" type="line"/>
    </contour>
  </outline>
</glyph>
<glyph name="Utilde" format="1">
  <advance width="1544"/>
  <unicode hex="0168"/>
  <outline>
    <contour>
      <point x="1175" y="1981" type="curve"/>
      <point x="1047" y="1981" type="line"/>
      <point x="1043" y="1905"/>
      <point x="1007" y="1865"/>
      <point x="945" y="1865" type="curve" smooth="yes"/>
      <point x="896" y="1865"/>
      <point x="858" y="1889"/>
      <point x="815" y="1918" type="curve" smooth="yes"/>
      <point x="764" y="1952"/>
      <point x="705" y="1990"/>
      <point x="607" y="1990" type="curve" smooth="yes" name="av01"/>
      <point x="450" y="1990"/>
      <point x="370" y="1889"/>
      <point x="370" y="1696" type="curve"/>
      <point x="498" y="1696" type="line"/>
      <point x="502" y="1771"/>
      <point x="543" y="1813"/>
      <point x="612" y="1813" type="curve" smooth="yes"/>
      <point x="666" y="1813"/>
      <point x="705" y="1788"/>
      <point x="747" y="1758" type="curve" smooth="yes"/>
      <point x="794" y="1724"/>
      <point x="849" y="1688"/>
      <point x="943" y="1688" type="curve" smooth="yes" name="av02"/>
      <point x="1097" y="1688"/>
      <point x="1175" y="1787"/>
    </contour>
    <contour>
      <point x="1444" y="1500" type="line"/>
      <point x="1048" y="1500" type="line"/>
      <point x="1048" y="731" type="line" smooth="yes"/>
      <point x="1048" y="445"/>
      <point x="962" y="315"/>
      <point x="772" y="315" type="curve" smooth="yes"/>
      <point x="582" y="315"/>
      <point x="496" y="445"/>
      <point x="496" y="731" type="curve" smooth="yes"/>
      <point x="496" y="1500" type="line"/>
      <point x="100" y="1500" type="line"/>
      <point x="100" y="677" type="line" smooth="yes"/>
      <point x="100" y="236"/>
      <point x="353" y="-30"/>
      <point x="772" y="-30" type="curve" smooth="yes"/>
      <point x="1191" y="-30"/>
      <point x="1444" y="236"/>
      <point x="1444" y="677" type="curve" smooth="yes"/>
    </contour>
  </outline>
</glyph>
<glyph name="utilde" format="1">
  <advance width="1219"/>
  <unicode hex="0169"/>
  <outline>
    <contour>
      <point x="1012" y="1481" type="curve"/>
      <point x="884" y="1481" type="line"/>
      <point x="880" y="1405"/>
      <point x="844" y="1365"/>
      <point x="782" y="1365" type="curve" smooth="yes"/>
      <point x="733" y="1365"/>
      <point x="696" y="1390"/>
      <point x="654" y="1417" type="curve" smooth="yes"/>
      <point x="601" y="1451"/>
      <point x="543" y="1490"/>
      <point x="445" y="1490" type="curve" smooth="yes" name="av01"/>
      <point x="288" y="1490"/>
      <point x="207" y="1389"/>
      <point x="207" y="1196" type="curve"/>
      <point x="335" y="1196" type="line"/>
      <point x="339" y="1271"/>
      <point x="381" y="1313"/>
      <point x="450" y="1313" type="curve" smooth="yes"/>
      <point x="504" y="1313"/>
      <point x="542" y="1287"/>
      <point x="583" y="1259" type="curve" smooth="yes"/>
      <point x="632" y="1225"/>
      <point x="686" y="1188"/>
      <point x="780" y="1188" type="curve" smooth="yes" name="av02"/>
      <point x="934" y="1188"/>
      <point x="1012" y="1287"/>
    </contour>
    <contour>
      <point x="1119" y="0" type="line" name="dh01"/>
      <point x="1119" y="1000" type="line" name="at01"/>
      <point x="750" y="1000" type="line"/>
      <point x="750" y="518" type="line" smooth="yes"/>
      <point x="750" y="386"/>
      <point x="694" y="310"/>
      <point x="597" y="310" type="curve" smooth="yes" name="sv01"/>
      <point x="502" y="310"/>
      <point x="449" y="385"/>
      <point x="449" y="518" type="curve" smooth="yes"/>
      <point x="449" y="1000" type="line" name="dh02"/>
      <point x="80" y="1000" type="line" name="ab02"/>
      <point x="80" y="417" type="line" smooth="yes"/>
      <point x="80" y="143"/>
      <point x="228" y="-20"/>
      <point x="476" y="-20" type="curve" smooth="yes" name="at02"/>
      <point x="629" y="-20"/>
      <point x="745" y="42"/>
      <point x="815" y="159" type="curve"/>
      <point x="827" y="0" type="line"/>
    </contour>
  </outline>
</glyph>
<glyph name="Uhungarumlaut" format="1">
  <advance width="1544"/>
  <unicode hex="0170"/>
  <outline>
    <contour>
      <point x="662" y="1660" type="line" name="av01"/>
      <point x="862" y="2000" type="line" name="at01"/>
      <point x="533" y="2000" type="line"/>
      <point x="401" y="1660" type="line"/>
    </contour>
    <contour>
      <point x="1082" y="1660" type="line" name="av01.1"/>
      <point x="1283" y="2000" type="line" name="at01.1"/>
      <point x="953" y="2000" type="line"/>
      <point x="822" y="1660" type="line"/>
    </contour>
    <contour>
      <point x="1444" y="1500" type="line"/>
      <point x="1048" y="1500" type="line"/>
      <point x="1048" y="731" type="line" smooth="yes"/>
      <point x="1048" y="445"/>
      <point x="962" y="315"/>
      <point x="772" y="315" type="curve" smooth="yes"/>
      <point x="582" y="315"/>
      <point x="496" y="445"/>
      <point x="496" y="731" type="curve" smooth="yes"/>
      <point x="496" y="1500" type="line"/>
      <point x="100" y="1500" type="line"/>
      <point x="100" y="677" type="line" smooth="yes"/>
      <point x="100" y="236"/>
      <point x="353" y="-30"/>
      <point x="772" y="-30" type="curve" smooth="yes"/>
      <point x="1191" y="-30"/>
      <point x="1444" y="236"/>
      <point x="1444" y="677" type="curve" smooth="yes"/>
    </contour>
  </outline>
</glyph>
<glyph name="Uogonek" format="1">
  <advance width="1544"/>
  <unicode hex="0172"/>
  <outline>
    <contour>
      <point x="1444" y="1500" type="line"/>
      <point x="1048" y="1500" type="line"/>
      <point x="1048" y="731" type="line" smooth="yes"/>
      <point x="1048" y="445"/>
      <point x="962" y="315"/>
      <point x="772" y="315" type="curve" smooth="yes"/>
      <point x="582" y="315"/>
      <point x="496" y="445"/>
      <point x="496" y="731" type="curve" smooth="yes"/>
      <point x="496" y="1500" type="line"/>
      <point x="100" y="1500" type="line"/>
      <point x="100" y="677" type="line" smooth="yes"/>
      <point x="100" y="236"/>
      <point x="353" y="-30"/>
      <point x="772" y="-30" type="curve" smooth="yes"/>
      <point x="792" y="-30"/>
      <point x="812" y="-29"/>
      <point x="832" y="-28" type="curve"/>
      <point x="749" y="-79"/>
      <point x="700" y="-154"/>
      <point x="700" y="-232" type="curve" smooth="yes"/>
      <point x="700" y="-343"/>
      <point x="804" y="-416"/>
      <point x="960" y="-416" type="curve" name="av01"/>
      <point x="989" y="-238" type="line"/>
      <point x="924" y="-238"/>
      <point x="875" y="-199"/>
      <point x="875" y="-145" type="curve" smooth="yes"/>
      <point x="875" y="-90"/>
      <point x="929" y="-30"/>
      <point x="1011" y="4" type="curve"/>
      <point x="1285" y="89"/>
      <point x="1444" y="328"/>
      <point x="1444" y="677" type="curve" smooth="yes"/>
    </contour>
  </outline>
</glyph>
<glyph name="uogonek" format="1">
  <advance width="1219"/>
  <unicode hex="0173"/>
  <outline>
    <contour>
      <point x="1119" y="0" type="line" name="dh01"/>
      <point x="1119" y="1000" type="line" name="at01"/>
      <point x="750" y="1000" type="line"/>
      <point x="750" y="518" type="line" smooth="yes"/>
      <point x="750" y="386"/>
      <point x="694" y="310"/>
      <point x="597" y="310" type="curve" smooth="yes" name="sv01"/>
      <point x="502" y="310"/>
      <point x="449" y="385"/>
      <point x="449" y="518" type="curve" smooth="yes"/>
      <point x="449" y="1000" type="line" name="dh02"/>
      <point x="80" y="1000" type="line" name="ab02"/>
      <point x="80" y="417" type="line" smooth="yes"/>
      <point x="80" y="143"/>
      <point x="228" y="-20"/>
      <point x="476" y="-20" type="curve" smooth="yes" name="at02"/>
      <point x="629" y="-20"/>
      <point x="745" y="42"/>
      <point x="815" y="159" type="curve"/>
      <point x="827" y="0" type="line"/>
      <point x="974" y="0" type="line" name="ab01"/>
      <point x="860" y="-50"/>
      <point x="788" y="-139"/>
      <point x="788" y="-232" type="curve" smooth="yes"/>
      <point x="788" y="-343"/>
      <point x="892" y="-416"/>
      <point x="1048" y="-416" type="curve" name="av01"/>
      <point x="1077" y="-238" type="line"/>
      <point x="1012" y="-238"/>
      <point x="963" y="-199"/>
      <point x="963" y="-145" type="curve" smooth="yes"/>
      <point x="963" y="-92"/>
      <point x="1014" y="-35"/>
      <point x="1091" y="0" type="curve"/>
    </contour>
  </outline>
</glyph>
<glyph name="Zacute" format="1">
  <advance width="1282"/>
  <unicode hex="0179"/>
  <outline>
    <contour>
      <point x="772" y="1660" type="line" name="av01"/>
      <point x="973" y="2000" type="line" name="at01"/>
      <point x="643" y="2000" type="line"/>
      <point x="512" y="1660" type="line"/>
    </contour>
    <contour>
      <point x="1222" y="0" type="line"/>
      <point x="1222" y="345" type="line"/>
      <point x="590" y="345" type="line"/>
      <point x="1212" y="1200" type="line"/>
      <point x="1212" y="1500" type="line"/>
      <point x="100" y="1500" type="line"/>
      <point x="100" y="1155" type="line"/>
      <point x="689" y="1155" type="line"/>
      <point x="60" y="290" type="line"/>
      <point x="60" y="0" type="line"/>
    </contour>
  </outline>
</glyph>
<glyph name="zdotaccent" format="1">
  <advance width="1147"/>
  <unicode hex="017C"/>
  <outline>
    <contour>
      <point x="572" y="1180" type="curve" smooth="yes"/>
      <point x="656" y="1180"/>
      <point x="712" y="1236"/>
      <point x="712" y="1320" type="curve" smooth="yes"/>
      <point x="712" y="1404"/>
      <point x="656" y="1460"/>
      <point x="572" y="1460" type="curve" smooth="yes"/>
      <point x="488" y="1460"/>
      <point x="432" y="1404"/>
      <point x="432" y="1320" type="curve" smooth="yes"/>
      <point x="432" y="1236"/>
      <point x="488" y="1180"/>
    </contour>
    <contour>
      <point x="1097" y="0" type="line"/>
      <point x="1097" y="330" type="line"/>
      <point x="611" y="330" type="line"/>
      <point x="1055" y="850" type="line"/>
      <point x="1055" y="1000" type="line"/>
      <point x="75" y="1000" type="line"/>
      <point x="75" y="670" type="line"/>
      <point x="468" y="670" type="line"/>
      <point x="50" y="180" type="line"/>
      <point x="50" y="0" type="line"/>
    </contour>
  </outline>
</glyph>
<glyph name="Zcaron" format="1">
  <advance width="1282"/>
  <unicode hex="017D"/>
  <outline>
    <contour>
      <point x="810" y="1660" type="line" name="at01"/>
      <point x="1035" y="2000" type="line"/>
      <point x="765" y="2000" type="line" name="av01"/>
      <point x="664" y="1809" type="line"/>
      <point x="563" y="2000" type="line" name="av01.1"/>
      <point x="292" y="2000" type="line"/>
      <point x="517" y="1660" type="line" name="at01.1"/>
    </contour>
    <contour>
      <point x="1222" y="0" type="line"/>
      <point x="1222" y="345" type="line"/>
      <point x="590" y="345" type="line"/>
      <point x="1212" y="1200" type="line"/>
      <point x="1212" y="1500" type="line"/>
      <point x="100" y="1500" type="line"/>
      <point x="100" y="1155" type="line"/>
      <point x="689" y="1155" type="line"/>
      <point x="60" y="290" type="line"/>
      <point x="60" y="0" type="line"/>
    </contour>
  </outline>
</glyph>
<glyph name="scommaaccent" format="1">
  <advance width="930"/>
  <unicode hex="0219"/>
  <outline>
    <contour>
      <point x="50" y="85" type="line"/>
      <point x="175" y="17"/>
      <point x="320" y="-20"/>
      <point x="465" y="-20" type="curve" smooth="yes"/>
      <point x="731" y="-20"/>
      <point x="900" y="104"/>
      <point x="900" y="298" type="curve" smooth="yes"/>
      <point x="900" y="496"/>
      <point x="725" y="557"/>
      <point x="592" y="604" type="curve" smooth="yes"/>
      <point x="511" y="633"/>
      <point x="446" y="656"/>
      <point x="446" y="701" type="curve" smooth="yes"/>
      <point x="446" y="728"/>
      <point x="468" y="744"/>
      <point x="512" y="744" type="curve" smooth="yes"/>
      <point x="592" y="744"/>
      <point x="732" y="690"/>
      <point x="797" y="634" type="curve"/>
      <point x="900" y="915" type="line"/>
      <point x="761" y="984"/>
      <point x="616" y="1020"/>
      <point x="479" y="1020" type="curve" smooth="yes"/>
      <point x="229" y="1020"/>
      <point x="68" y="900"/>
      <point x="68" y="710" type="curve" smooth="yes"/>
      <point x="68" y="513"/>
      <point x="243" y="451"/>
      <point x="375" y="404" type="curve" smooth="yes"/>
      <point x="456" y="375"/>
      <point x="521" y="352"/>
      <point x="521" y="306" type="curve" smooth="yes"/>
      <point x="521" y="276"/>
      <point x="492" y="260"/>
      <point x="439" y="260" type="curve" smooth="yes"/>
      <point x="333" y="260"/>
      <point x="179" y="324"/>
      <point x="126" y="389" type="curve"/>
    </contour>
    <contour>
      <point x="428" y="-548" type="line"/>
      <point x="552" y="-484"/>
      <point x="630" y="-345"/>
      <point x="630" y="-190" type="curve" smooth="yes"/>
      <point x="630" y="-139"/>
      <point x="621" y="-86"/>
      <point x="603" y="-35" type="curve"/>
      <point x="331" y="-90" type="line"/>
      <point x="364" y="-135"/>
      <point x="380" y="-191"/>
      <point x="380" y="-247" type="curve" smooth="yes"/>
      <point x="380" y="-320"/>
      <point x="353" y="-392"/>
      <point x="300" y="-437" type="curve"/>
    </contour>
  </outline>
</glyph>
<glyph name="Tcommaaccent" format="1">
  <advance width="1248"/>
  <unicode hex="021A"/>
  <outline>
    <contour>
      <point x="822" y="0" type="line"/>
      <point x="822" y="1155" type="line"/>
      <point x="1238" y="1155" type="line"/>
      <point x="1238" y="1500" type="line"/>
      <point x="10" y="1500" type="line"/>
      <point x="10" y="1155" type="line"/>
      <point x="426" y="1155" type="line"/>
      <point x="426" y="0" type="line"/>
    </contour>
    <contour>
      <point x="587" y="-548" type="line"/>
      <point x="711" y="-484"/>
      <point x="789" y="-345"/>
      <point x="789" y="-190" type="curve" smooth="yes"/>
      <point x="789" y="-139"/>
      <point x="780" y="-86"/>
      <point x="762" y="-35" type="curve"/>
      <point x="490" y="-90" type="line"/>
      <point x="523" y="-135"/>
      <point x="539" y="-191"/>
      <point x="539" y="-247" type="curve" smooth="yes"/>
      <point x="539" y="-320"/>
      <point x="512" y="-392"/>
      <point x="459" y="-437" type="curve"/>
    </contour>
  </outline>
</glyph>
<glyph name="circumflex" format="1">
  <advance width="943"/>
  <unicode hex="02C6"/>
  <outline>
    <contour>
      <point x="843" y="1160" type="line"/>
      <point x="618" y="1500" type="line" name="at01"/>
      <point x="325" y="1500" type="line" name="at01.1"/>
      <point x="100" y="1160" type="line"/>
      <point x="370" y="1160" type="line" name="av01"/>
      <point x="471" y="1352" type="line"/>
      <point x="573" y="1160" type="line" name="av01.1"/>
    </contour>
  </outline>
</glyph>
<glyph name="ring" format="1">
  <advance width="660"/>
  <unicode hex="02DA"/>
  <outline>
    <contour>
      <point x="330" y="1080" type="curve" smooth="yes"/>
      <point x="468" y="1080"/>
      <point x="560" y="1168"/>
      <point x="560" y="1300" type="curve" smooth="yes"/>
      <point x="560" y="1432"/>
      <point x="468" y="1520"/>
      <point x="330" y="1520" type="curve" smooth="yes"/>
      <point x="192" y="1520"/>
      <point x="100" y="1432"/>
      <point x="100" y="1300" type="curve" smooth="yes"/>
      <point x="100" y="1168"/>
      <point x="192" y="1080"/>
    </contour>
    <contour>
      <point x="330" y="1220" type="curve" smooth="yes"/>
      <point x="282" y="1220"/>
      <point x="250" y="1252"/>
      <point x="250" y="1300" type="curve" smooth="yes"/>
      <point x="250" y="1348"/>
      <point x="282" y="1380"/>
      <point x="330" y="1380" type="curve" smooth="yes"/>
      <point x="378" y="1380"/>
      <point x="410" y="1348"/>
      <point x="410" y="1300" type="curve" smooth="yes"/>
      <point x="410" y="1252"/>
      <point x="378" y="1220"/>
    </contour>
  </outline>
</glyph>
<glyph name="hungarumlaut" format="1">
  <advance width="992"/>
  <unicode hex="02DD"/>
  <outline>
    <contour>
      <point x="323" y="1160" type="line" name="av01"/>
      <point x="523" y="1500" type="line" name="at01"/>
      <point x="194" y="1500" type="line"/>
      <point x="62" y="1160" type="line"/>
    </contour>
    <contour>
      <point x="744" y="1160" type="line" name="av01.1"/>
      <point x="944" y="1500" type="line" name="at01.1"/>
      <point x="615" y="1500" type="line"/>
      <point x="483" y="1160" type="line"/>
    </contour>
  </outline>
</glyph>
<glyph name="commaaccent" format="1">
  <advance width="530"/>
  <unicode hex="0326"/>
  <outline>
    <contour>
      <point x="228" y="-548" type="line"/>
      <point x="352" y="-484"/>
      <point x="430" y="-345"/>
      <point x="430" y="-190" type="curve" smooth="yes"/>
      <point x="430" y="-139"/>
      <point x="421" y="-86"/>
      <point x="403" y="-35" type="curve"/>
      <point x="131" y="-90" type="line"/>
      <point x="164" y="-135"/>
      <point x="180" y="-191"/>
      <point x="180" y="-247" type="curve" smooth="yes"/>
      <point x="180" y="-320"/>
      <point x="153" y="-392"/>
      <point x="100" y="-437" type="curve"/>
    </contour>
  </outline>
</glyph>
<glyph name="wgrave" format="1">
  <advance width="1742"/>
  <unicode hex="1E81"/>
  <outline>
    <contour>
      <point x="998" y="1160" type="line"/>
      <point x="866" y="1500" type="line"/>
      <point x="537" y="1500" type="line" name="at01"/>
      <point x="737" y="1160" type="line" name="av01"/>
    </contour>
    <contour>
      <point x="1407" y="0" type="line"/>
      <point x="1732" y="1000" type="line"/>
      <point x="1342" y="1000" type="line"/>
      <point x="1203" y="367" type="line"/>
      <point x="1029" y="1000" type="line"/>
      <point x="713" y="1000" type="line"/>
      <point x="539" y="371" type="line"/>
      <point x="400" y="1000" type="line"/>
      <point x="10" y="1000" type="line"/>
      <point x="335" y="0" type="line"/>
      <point x="755" y="0" type="line"/>
      <point x="871" y="519" type="line"/>
      <point x="987" y="0" type="line"/>
    </contour>
  </outline>
</glyph>
<glyph name="wacute" format="1">
  <advance width="1742"/>
  <unicode hex="1E83"/>
  <outline>
    <contour>
      <point x="1005" y="1160" type="line" name="av01"/>
      <point x="1206" y="1500" type="line" name="at01"/>
      <point x="876" y="1500" type="line"/>
      <point x="745" y="1160" type="line"/>
    </contour>
    <contour>
      <point x="1407" y="0" type="line"/>
      <point x="1732" y="1000" type="line"/>
      <point x="1342" y="1000" type="line"/>
      <point x="1203" y="367" type="line"/>
      <point x="1029" y="1000" type="line"/>
      <point x="713" y="1000" type="line"/>
      <point x="539" y="371" type="line"/>
      <point x="400" y="1000" type="line"/>
      <point x="10" y="1000" type="line"/>
      <point x="335" y="0" type="line"/>
      <point x="755" y="0" type="line"/>
      <point x="871" y="519" type="line"/>
      <point x="987" y="0" type="line"/>
    </contour>
  </outline>
</glyph>
<glyph name="Germandbls" format="1">
  <advance width="1357"/>
  <unicode hex="1E9E"/>
  <outline>
    <contour>
      <point x="496.878" y="0" type="line"/>
      <point x="496.878" y="945.292" type="line" smooth="yes"/>
      <point x="496.878" y="1089.66"/>
      <point x="572.331" y="1185.02"/>
      <point x="700.677" y="1185.02" type="curve" smooth="yes"/>
      <point x="812.479" y="1185.02"/>
      <point x="872.967" y="1118.36"/>
      <point x="882.256" y="1053.58" type="curve"/>
      <point x="612.003" y="750.853" type="line"/>
      <point x="690.442" y="633.978" type="line"/>
      <point x="829.418" y="639.615"/>
      <point x="911" y="566.325"/>
      <point x="911" y="435.838" type="curve" smooth="yes"/>
      <point x="911" y="313.207"/>
      <point x="838.227" y="235.078"/>
      <point x="724.002" y="235.078" type="curve" smooth="yes"/>
      <point x="687.381" y="235.078"/>
      <point x="647.877" y="243.198"/>
      <point x="607.136" y="259.1" type="curve"/>
      <point x="555.682" y="-0.618713" type="line"/>
      <point x="628.892" y="-17.8976"/>
      <point x="732.324" y="-30"/>
      <point x="806.786" y="-30" type="curve" smooth="yes"/>
      <point x="1091.97" y="-30"/>
      <point x="1307" y="162.584"/>
      <point x="1307" y="418.002" type="curve" smooth="yes"/>
      <point x="1307" y="659.698"/>
      <point x="1129.87" y="813.353"/>
      <point x="816.412" y="793.564" type="curve"/>
      <point x="846.257" y="686.522" type="line"/>
      <point x="1087.21" y="945.871" type="line" smooth="yes"/>
      <point x="1130.03" y="991.96"/>
      <point x="1164.13" y="1054.64"/>
      <point x="1153.34" y="1129.29" type="curve" smooth="yes"/>
      <point x="1118.72" y="1368.91"/>
      <point x="914.786" y="1530"/>
      <point x="646.055" y="1530" type="curve" smooth="yes"/>
      <point x="329.156" y="1530"/>
      <point x="100.83" y="1312.39"/>
      <point x="100.83" y="1010.37" type="curve" smooth="yes"/>
      <point x="100.83" y="0" type="line"/>
    </contour>
  </outline>
</glyph>
<glyph name="ygrave" format="1">
  <advance width="1369"/>
  <unicode hex="1EF3"/>
  <outline>
    <contour>
      <point x="737" y="-500" type="line"/>
      <point x="1359" y="1000" type="line"/>
      <point x="969" y="1000" type="line"/>
      <point x="727" y="416" type="line"/>
      <point x="450" y="1000" type="line"/>
      <point x="30" y="1000" type="line"/>
      <point x="553" y="-3" type="line"/>
      <point x="347" y="-500" type="line"/>
    </contour>
    <contour>
      <point x="915" y="1160" type="line"/>
      <point x="784" y="1500" type="line"/>
      <point x="454" y="1500" type="line" name="at01"/>
      <point x="655" y="1160" type="line" name="av01"/>
    </contour>
  </outline>
</glyph>
<glyph name="emdash" format="1">
  <advance width="2240"/>
  <unicode hex="2014"/>
  <outline>
    <contour>
      <point x="2140" y="370" type="line" name="dv01"/>
      <point x="2140" y="650" type="line" name="dv02"/>
      <point x="100" y="650" type="line"/>
      <point x="100" y="370" type="line"/>
    </contour>
  </outline>
</glyph>
<glyph name="four.superior" format="1">
  <advance width="697"/>
  <unicode hex="2074"/>
  <outline>
    <contour>
      <point x="583" y="730" type="line"/>
      <point x="583" y="869" type="line"/>
      <point x="677" y="869" type="line"/>
      <point x="677" y="1046" type="line"/>
      <point x="583" y="1046" type="line"/>
      <point x="583" y="1500" type="line"/>
      <point x="380" y="1500" type="line"/>
      <point x="20" y="1023" type="line"/>
      <point x="20" y="869" type="line"/>
      <point x="380" y="869" type="line"/>
      <point x="380" y="730" type="line"/>
    </contour>
    <contour>
      <point x="380" y="1046" type="line"/>
      <point x="215" y="1046" type="line"/>
      <point x="380" y="1265" type="line"/>
    </contour>
  </outline>
</glyph>
<glyph name="Euro" format="1">
  <advance width="1064"/>
  <unicode hex="20AC"/>
  <outline>
    <contour>
      <point x="870" y="805" type="line"/>
      <point x="889" y="965" type="line"/>
      <point x="600" y="965" type="line"/>
      <point x="670" y="1105"/>
      <point x="816" y="1185"/>
      <point x="1014" y="1185" type="curve" name="sv02.1"/>
      <point x="1014" y="1530" type="line" name="at01.1"/>
      <point x="575" y="1530"/>
      <point x="262" y="1312"/>
      <point x="172" y="965" type="curve"/>
      <point x="39" y="965" type="line"/>
      <point x="20" y="805" type="line"/>
      <point x="149" y="805" type="line"/>
      <point x="147" y="792"/>
      <point x="146" y="772"/>
      <point x="146" y="757" type="curve" smooth="yes"/>
      <point x="146" y="736"/>
      <point x="148" y="718"/>
      <point x="151" y="695" type="curve"/>
      <point x="39" y="695" type="line"/>
      <point x="20" y="535" type="line"/>
      <point x="172" y="535" type="line"/>
      <point x="262" y="188"/>
      <point x="575" y="-30"/>
      <point x="1014" y="-30" type="curve" name="sv03.1"/>
      <point x="1014" y="315" type="line"/>
      <point x="816" y="315"/>
      <point x="670" y="396"/>
      <point x="600" y="535" type="curve"/>
      <point x="840" y="535" type="line"/>
      <point x="859" y="695" type="line"/>
      <point x="555" y="695" type="line"/>
      <point x="553" y="716"/>
      <point x="552" y="729"/>
      <point x="552" y="750" type="curve" smooth="yes"/>
      <point x="552" y="771"/>
      <point x="553" y="784"/>
      <point x="555" y="805" type="curve"/>
    </contour>
  </outline>
</glyph>
<glyph name="arrowup" format="1">
  <advance width="1003"/>
  <unicode hex="2191"/>
  <outline>
    <contour>
      <point x="574" y="0" type="line"/>
      <point x="560" y="1306" type="line"/>
      <point x="754" y="1000" type="line" name="av01.2"/>
      <point x="903" y="1000" type="line"/>
      <point x="564" y="1500" type="line" name="at01.1"/>
      <point x="438" y="1500" type="line" name="at01.2"/>
      <point x="100" y="1000" type="line"/>
      <point x="250" y="1000" type="line" name="av01.1"/>
      <point x="443" y="1306" type="line"/>
      <point x="430" y="0" type="line"/>
    </contour>
  </outline>
</glyph>
<glyph name="product" format="1">
  <advance width="1932"/>
  <unicode hex="220F"/>
  <outline>
    <contour>
      <point x="1672" y="-400" type="line" name="av02"/>
      <point x="1672" y="1155" type="line" name="sv03"/>
      <point x="1902" y="1170" type="line" name="sv02"/>
      <point x="1902" y="1500" type="line"/>
      <point x="30" y="1500" type="line" name="at01"/>
      <point x="30" y="1170" type="line"/>
      <point x="260" y="1155" type="line" name="sv01"/>
      <point x="260" y="-400" type="line" name="av01"/>
      <point x="656" y="-400" type="line" name="sh01"/>
      <point x="656" y="1155" type="line" name="sv05"/>
      <point x="1276" y="1155" type="line" name="sv04"/>
      <point x="1276" y="-400" type="line" name="ah01"/>
    </contour>
  </outline>
</glyph>
<glyph name="minus" format="1">
  <advance width="1000"/>
  <unicode hex="2212"/>
  <outline>
    <contour>
      <point x="900" y="360" type="line"/>
      <point x="900" y="640" type="line"/>
      <point x="100" y="640" type="line" name="dv02"/>
      <point x="100" y="360" type="line" name="dv01"/>
    </contour>
  </outline>
</glyph>
